# xmcd
#
# Track frame offsets:
#	150
#	11211
#	22970
#	34437
#	45752
#	57690
#	69264
#	80153
#	91743
#	103372
#	116691
#	129504
#	141883
#	153639
#	165643
#	178931
#	190909
#	202774
#	214544
#	227155
#	238845
#	250558
#	263325
#	274606
#	286103
#
# Disc length: 3970 seconds
# Revision: 1
# Processed by: cddbd v1.5.2PL0 Copyright (c) Steve Scherf et al.
# Submitted via: dBpowerAMP V12.0
#
DISCID=5d0f8019
DTITLE=Bob Wills - Texas, Hollywood And Chicago 1940-1947, CD02 - CD04
DYEAR=2011
DGENRE=Country
TTITLE0=My Life's Been A Pleasure
TTITLE1=We Might As Well Forget It
TTITLE2=Home In San Antone
TTITLE3=That Hot Lick Fiddlin' Man
TTITLE4=Liberty
TTITLE5=Miss Molly
TTITLE6=Honeymoon Trail
TTITLE7=You're From Texas
TTITLE8=Goodbye, Liza Jane
TTITLE9=My Confession
TTITLE10=Ten Years
TTITLE11=Let's Ride With Bob [Theme Song]
TTITLE12=Whose Heart Are You Breaking Now?
TTITLE13=Hang Your Head In Shame
TTITLE14=Smoke On The Water
TTITLE15=Texas Playboy Rag
TTITLE16=Roly Poly
TTITLE17=You Don't Care What Happens To Me
TTITLE18=Stay A Little Longer
TTITLE19=You Should Have Thought Of That Before
TTITLE20=I Can't Go On This Way
TTITLE21=Stars And Stripes On Iwo Jima
TTITLE22=Silver Dew On The Bluegrass Tonight
TTITLE23=New Spanish Two Step
TTITLE24=Empty Chair At The Christmas Table
EXTD=
EXTT0=
EXTT1=
EXTT2=
EXTT3=
EXTT4=
EXTT5=
EXTT6=
EXTT7=
EXTT8=
EXTT9=
EXTT10=
EXTT11=
EXTT12=
EXTT13=
EXTT14=
EXTT15=
EXTT16=
EXTT17=
EXTT18=
EXTT19=
EXTT20=
EXTT21=
EXTT22=
EXTT23=
EXTT24=
PLAYORDER=
